<svg width="100" height="44" viewBox="0 0 100 44" fill="none" xmlns="http://www.w3.org/2000/svg">
<g clip-path="url(#clip0)">
<path d="M13.5 13.5057H33.25V43.5185H25.5V19.2582H13.5V43.5185H5.75V19.2582H0V13.5057H5.75C5.75 9.25394 7 6.00255 9.25 3.7516C11.5 1.50064 15 0.250106 19.5 0H22.25L22.5 5.75245H19.5C17.5 6.00255 15.75 6.50277 14.75 7.50319C14 8.50362 13.5 10.0043 13.5 12.0051V13.5057Z" fill="#454D60"/>
<path d="M63 15.7567C64.75 17.7576 65.75 21.0089 65.75 25.0106V43.5185H58V25.5109C58 23.2599 57.5 21.5092 56.75 20.5087C55.75 19.5083 54.5 19.0081 52.5 19.0081C50.25 19.0081 48.5 19.7584 47.25 21.0089C46 22.5096 45.25 24.2603 45.25 26.5113V43.5185H37.5V13.5058H45V18.0077C46 16.2569 47.5 15.0064 49 14.2561C50.75 13.2556 52.75 13.0055 54.75 13.0055C58.75 12.7554 61.25 13.7559 63 15.7567Z" fill="#454D60"/>
<path d="M100 43.5185H90.5L77.5 29.7626V43.5185H70V0.250092H77.5V26.7614L89.5 13.7558H98.75L85.25 28.262L100 43.5185Z" fill="#454D60"/>
</g>
<defs>
<clipPath id="clip0">
<rect width="100" height="43.5185" fill="white"/>
</clipPath>
</defs>
</svg>
