<?xml version="1.0" encoding="UTF-8" standalone="no"?> <!-- Created with Vectornator for iOS (http://vectornator.io/) --><!DOCTYPE svg PUBLIC "-//W3C//DTD SVG 1.1//EN" "http://www.w3.org/Graphics/SVG/1.1/DTD/svg11.dtd">
<svg style="fill-rule:evenodd;clip-rule:evenodd;stroke-linecap:round;stroke-linejoin:round;" xmlns:vectornator="http://vectornator.io" xmlns:xlink="http://www.w3.org/1999/xlink" xmlns="http://www.w3.org/2000/svg" xml:space="preserve" version="1.1" viewBox="0 0 809 500">
<metadata>
<vectornator:setting key="DynamicGuides" value="1"/>
<vectornator:setting key="Units" value="Points"/>
<vectornator:setting key="RulersVisible" value="1"/>
<vectornator:setting key="SnapToGuides" value="1"/>
<vectornator:setting key="GridSpacing" value="36"/>
</metadata>
<defs/>
<g id="Layer 1" vectornator:layerName="Layer 1">
<path d="M549.815+291.923C548.169+296.002+545.834+299.575+542.859+302.671C539.896+305.754+536.358+308.233+532.281+310.104C528.205+311.984+523.623+312.915+518.553+312.915C511.275+312.915+505.495+310.327+501.194+305.15C496.893+299.967+494.744+293.846+494.744+286.79C494.744+282.826+495.568+278.804+497.223+274.708C498.876+270.65+501.075+267.002+503.836+263.814C506.586+260.611+509.893+258.021+513.761+256.033C517.614+254.044+521.752+253.058+526.161+253.058C534.103+253.058+540.434+255.485+545.184+260.342C549.918+265.183+552.294+271.461+552.294+279.188C552.294+283.597+551.459+287.838+549.815+291.923M635.788+218.66C629.078+206.319+620.091+195.84+608.848+187.237C597.599+178.648+584.584+172.038+569.819+167.401C555.047+162.775+539.496+160.453+523.182+160.453C506.204+160.453+490.274+163.65+475.389+170.041C460.511+176.444+447.499+185.205+436.374+196.333C425.237+207.474+416.466+220.48+410.071+235.36C403.676+250.252+400.488+266.181+400.488+283.156C400.488+300.128+403.676+316.058+410.071+330.939C416.466+345.825+425.237+358.778+436.374+369.802C447.499+380.825+460.511+389.426+475.389+395.598C489.538+401.464+504.647+404.51+520.688+404.802C515.266+398.452+513.102+389.557+515.792+380.99C516.52+378.658+517.577+376.531+518.874+374.59C510.384+373.62+502.336+371.814+494.744+369.134C482.842+364.952+472.58+358.886+463.979+350.951C455.385+343.011+448.717+333.365+443.967+322.018C439.244+310.656+436.864+297.811+436.864+283.48C436.864+269.816+439.015+257.359+443.315+246.118C447.616+234.862+453.737+225.105+461.667+216.84C469.611+208.57+479.201+202.186+490.436+197.656C501.685+193.138+514.244+190.878+528.149+190.878C540.715+190.878+552.335+192.527+563.038+195.84C573.727+199.143+582.995+203.944+590.819+210.231C598.649+216.514+604.702+224.231+609.009+233.379C613.302+242.532+615.454+253.058+615.454+264.962C615.454+274.215+614.466+282.154+612.486+288.775C610.493+295.387+608.014+300.737+605.037+304.814C602.063+308.902+598.924+311.923+595.624+313.906C592.303+315.893+589.216+316.891+586.357+316.891C582.602+316.891+580.732+314.464+580.732+309.605C580.732+308.065+581.003+305.754+581.559+302.671C582.112+299.575+582.602+296.823+583.05+294.399L596.283+224.621L565.847+224.621L563.199+236.856C557.695+229.798+551.459+224.678+544.526+221.472C537.583+218.279+529.907+216.671+521.537+216.671C511.393+216.671+502.182+218.78+493.917+222.954C485.651+227.152+478.584+232.776+472.749+239.825C466.907+246.886+462.382+254.932+459.195+263.971C455.994+273.013+454.39+282.382+454.39+292.091C454.39+300.682+455.77+308.457+458.53+315.399C461.276+322.338+465.03+328.362+469.772+333.421C474.514+338.506+480.027+342.403+486.31+345.167C492.593+347.929+499.157+349.297+505.985+349.297C513.48+349.297+520.262+347.973+526.326+345.333C532.377+342.686+537.289+339.151+541.038+334.752L542.375+334.752C543.027+339.375+545.12+342.965+548.659+345.489C552.174+348.04+556.482+349.297+561.539+349.297C570.365+349.297+579.744+347.267+589.656+343.179C599.587+339.103+608.68+333.261+616.945+325.65C625.211+318.032+632.104+308.678+637.616+297.539C643.124+286.412+645.874+273.901+645.874+260.005C645.874+244.797+642.52+231.012+635.788+218.66" fill-rule="evenodd" fill="#2da4ff" opacity="1"/>
<path d="M556.734+393.857C553.777+403.24+543.766+408.474+534.376+405.516C524.974+402.574+519.755+392.56+522.713+383.169C525.647+373.762+535.663+368.536+545.064+371.49C554.458+374.449+559.689+384.451+556.734+393.857" fill-rule="evenodd" fill="#2da4ff" opacity="1"/>
<path d="M592.023+387.413C589.711+394.771+581.873+398.865+574.534+396.555C567.172+394.241+563.081+386.415+565.397+379.059C567.704+371.701+575.534+367.607+582.897+369.927C590.252+372.233+594.336+380.065+592.023+387.413" fill-rule="evenodd" fill="#2da4ff" opacity="1"/>
<path d="M621.904+370.781C620.167+376.295+614.292+379.354+608.779+377.625C603.258+375.896+600.197+370.021+601.926+364.505C603.657+358.989+609.533+355.914+615.045+357.651C620.575+359.387+623.633+365.259+621.904+370.781" fill-rule="evenodd" fill="#2da4ff" opacity="1"/>
<path d="M642.246+349.323C640.95+353.454+636.552+355.756+632.396+354.458C628.264+353.151+625.967+348.748+627.264+344.615C628.558+340.475+632.972+338.175+637.105+339.482C641.245+340.769+643.543+345.176+642.246+349.323" fill-rule="evenodd" fill="#2da4ff" opacity="1"/>
<path d="M621.21+158.165C621.883+163.327+626.346+166.844+631.207+166.031C636.048+165.212+639.438+160.382+638.767+155.231C638.101+150.087+633.628+146.551+628.771+147.364C623.937+148.176+620.545+153.014+621.21+158.165" fill-rule="evenodd" fill="#2da4ff" opacity="1"/>
<path d="M643.129+182.999C643.683+187.29+647.415+190.216+651.457+189.55C655.485+188.877+658.308+184.86+657.754+180.552C657.193+176.254+653.469+173.309+649.434+173.995C645.391+174.668+642.569+178.704+643.129+182.999" fill-rule="evenodd" fill="#2da4ff" opacity="1"/>
<path d="M593.788+136.872C594.62+143.312+600.212+147.715+606.271+146.709C612.336+145.686+616.553+139.653+615.726+133.201C614.894+126.763+609.297+122.357+603.245+123.373C597.191+124.379+592.969+130.428+593.788+136.872" fill-rule="evenodd" fill="#2da4ff" opacity="1"/>
<path d="M555.955+118.582C557.014+126.74+564.08+132.307+571.765+131.036C579.43+129.755+584.796+122.099+583.736+113.945C582.672+105.78+575.59+100.198+567.927+101.484C560.249+102.759+554.885+110.421+555.955+118.582" fill-rule="evenodd" fill="#2da4ff" opacity="1"/>
<path d="M508.101+106.706C509.328+116.155+517.522+122.621+526.388+121.116C535.28+119.653+541.494+110.772+540.266+101.327C539.034+91.8744+530.844+85.4154+521.97+86.9074C513.081+88.3744+506.868+97.2574+508.101+106.706" fill-rule="evenodd" fill="#2da4ff" opacity="1"/>
<path d="M447.657+113.041C449.345+125.934+460.517+134.752+472.635+132.722C484.733+130.7+493.201+118.61+491.54+105.717C489.873+92.8264+478.7+84.0214+466.577+86.0424C454.473+88.0774+445.998+100.163+447.657+113.041" fill-rule="evenodd" fill="#2da4ff" opacity="1"/>
<path d="M368.827+148.927C371.489+164.876+385.786+175.345+400.775+172.281C415.738+169.223+425.733+153.802+423.099+137.836C420.431+121.876+406.134+111.421+391.137+114.463C376.161+117.536+366.18+132.963+368.827+148.927" fill-rule="evenodd" fill="#2da4ff" opacity="1"/>
<path d="M308.252+212.129C311.075+229.111+326.295+240.255+342.231+236.988C358.159+233.731+368.792+217.331+365.97+200.344C363.154+183.361+347.932+172.241+331.991+175.491C316.055+178.755+305.428+195.153+308.252+212.129" fill-rule="evenodd" fill="#2da4ff" opacity="1"/>
<path d="M357.207+238.893C353.223+241.513+348.766+243.457+343.913+244.452C336.718+245.926+329.651+245.155+323.277+242.649C316.392+246.945+312.791+254.405+312.791+265.633L312.791+309.153C312.791+310.53+313.932+311.903+315.425+311.903L334.169+311.903C335.682+311.903+336.804+310.53+336.804+309.153L336.804+265.633C336.804+260.882+337.188+257.505+343.065+257.505L347.814+257.505C353.692+257.505+354.07+260.882+354.07+265.633L354.07+309.153C354.07+310.53+355.19+311.903+356.696+311.903L375.454+311.903C376.954+311.903+378.081+310.53+378.081+309.153L378.081+265.633C378.081+249.709+370.866+241.325+357.207+238.893" fill-rule="evenodd" fill="#000000" opacity="1"/>
<path d="M64.8555+257.496C62.3535+257.246+59.3495+256.997+56.3445+256.997C49.3465+256.997+47.3505+262.367+47.3505+269.746L47.3505+279.504C47.3505+287.009+49.3465+292.377+56.3445+292.377C59.9795+292.377+62.4725+292.136+64.8555+291.758L64.8555+257.496ZM84.3555+309.017C77.8625+310.39+67.6015+312.148+56.3445+312.148C35.8335+312.148+23.4575+300.637+23.4575+279.504L23.4575+269.746C23.4575+260.983+25.5477+253.606+29.7804+248.095C35.1507+241.104+43.9698+237.118+56.3445+237.118C58.3545+237.118+62.2205+237.605+64.8555+237.987M64.8555+237.987L64.8555+216.85C64.8555+215.481+65.9825+214.339+67.3625+214.339L85.9805+214.339C87.3675+214.339+88.7405+215.481+88.7405+216.85L88.7405+305.017C88.7405+307.141+88.1175+308.142+84.3555+309.017" fill-rule="evenodd" fill="#000000" opacity="1"/>
<path d="M134.355+281.646L128.835+281.646C122.713+281.646+119.842+283.766+119.842+289.019L119.842+290.14C119.842+295.271+123.211+296.27+128.835+296.27C130.846+296.27+132.968+296.139+134.355+295.898L134.355+281.646ZM156.111+309.403C148.098+311.399+139.229+313.025+128.835+313.025C107.457+313.025+96.9645+305.774+96.9645+290.14L96.9645+289.139C96.9645+274.137+108.955+268.633+128.835+268.633L133.718+268.633L133.718+265.133C133.718+262.088+132.851+260.277+131.456+259.225M131.456+259.225C130.047+258.162+128.099+257.875+125.963+257.875C117.831+257.875+108.207+258.381+104.579+258.763C103.08+258.886+101.951+257.875+101.951+256.258L101.951+244.135C101.951+242.746+102.828+241.509+104.326+241.129C108.451+239.876+117.957+237.997+125.963+237.997C144.106+237.997+157.596+244+157.596+265.133L157.596+306.52C157.596+308.019+157.484+309.028+156.111+309.403" fill-rule="evenodd" fill="#000000" opacity="1"/>
<path d="M207.84+258.503C205.458+258.254+202.587+257.876+198.832+257.876C191.827+257.876+189.824+263.136+189.824+270.635L189.824+277.762C189.824+285.019+191.827+290.644+198.832+290.644C201.83+290.644+205.339+290.266+207.84+290.024L207.84+258.503ZM198.699+337.413C187.695+337.413+178.693+335.162+174.322+333.666C172.571+333.038+171.822+332.161+171.822+330.16L171.822+319.903C171.822+318.53+172.698+317.541+174.07+317.541L174.322+317.541C179.954+318.033+192.458+319.027+198.699+319.027C205.843+319.027+207.84+317.409+207.84+311.648L207.84+309.532C205.843+309.903+201.578+310.41+198.832+310.41C176.69+310.41+165.937+297.642+165.937+277.762L165.937+270.635C165.937+249.632+178.33+237.996+198.832+237.996C210.075+237.996+220.722+239.244+226.844+240.872C230.591+241.871+231.221+242.49+231.221+244.62L231.221+299.229M231.221+299.229L231.221+311.648C231.221+330.039+220.833+337.413+198.699+337.413" fill-rule="evenodd" fill="#000000" opacity="1"/>
<path d="M281.704+268.633C281.704+261.129+278.699+256.628+272.436+256.628C266.441+256.628+263.184+261.129+263.184+268.633L263.184+269.014L281.704+269.014L281.704+268.633ZM302.088+282.267L263.184+282.267L263.184+282.513C263.184+289.139+265.951+293.272+275.064+293.272C281.704+293.272+294.088+292.774+298.837+292.273L299.327+292.273C300.708+292.273+301.59+292.9+301.59+294.399L301.59+305.658C301.59+307.648+301.085+308.527+299.096+309.154C291.083+311.78+282.454+313.025+271.954+313.025C255.072+313.025+239.43+304.153+239.43+280.267L239.43+272.004C239.43+249.992+252.179+237.997+272.696+237.997C294.578+237.997+304.714+251.877+304.714+272.004L304.714+279.518C304.714+281.146+303.586+282.267+302.088+282.267" fill-rule="evenodd" fill="#000000" opacity="1"/>
<path d="M689.744+319.798L671.112+319.798C669.74+319.798+668.359+318.414+668.359+317.048L668.359+249.636C668.359+248.255+669.74+247.012+671.112+247.012L689.744+247.012C691.118+247.012+692.49+248.255+692.49+249.636L692.49+317.048C692.49+318.414+691.118+319.798+689.744+319.798M690.36+240.124L670.6+240.124C669.233+240.124+667.735+239.006+667.735+237.632L667.735+225.375C667.735+223.992+669.233+222.878+670.6+222.878L690.36+222.878C691.74+222.878+693.121+223.992+693.121+225.375L693.121+237.632C693.121+239.006+691.74+240.124+690.36+240.124" fill-rule="evenodd" fill="#000000" opacity="1"/>
<path d="M747.267+264.77L730.89+264.77L730.89+317.047C730.89+318.414+729.629+319.798+728.248+319.798L709.381+319.798C707.998+319.798+706.752+318.414+706.752+317.047L706.752+243.635C706.752+225.131+719.136+220.876+733.012+220.876C738.014+220.876+744.513+221.499+747.638+222.119C749.389+222.499+749.886+223.001+749.886+224.131L749.886+236.264C749.886+237.633+749.019+238.502+747.638+238.502L736.64+238.502C731.5+238.502+730.89+240.124+730.89+243.635L730.89+247.012L747.267+247.012C748.647+247.012+749.886+248.141+749.886+249.51L749.886+262.139C749.886+263.507+748.647+264.77+747.267+264.77" fill-rule="evenodd" fill="#000000" opacity="1"/>
<path d="M781.912+319.798L763.271+319.798C761.904+319.798+760.534+318.414+760.534+317.048L760.534+249.636C760.534+248.255+761.904+247.012+763.271+247.012L781.912+247.012C783.285+247.012+784.672+248.255+784.672+249.636L784.672+317.048C784.672+318.414+783.285+319.798+781.912+319.798M782.534+240.124L762.774+240.124C761.393+240.124+759.911+239.006+759.911+237.632L759.911+225.375C759.911+223.992+761.393+222.878+762.774+222.878L782.534+222.878C783.915+222.878+785.295+223.992+785.295+225.375L785.295+237.632C785.295+239.006+783.915+240.124+782.534+240.124" fill-rule="evenodd" fill="#000000" opacity="1"/>
<path d="M0+0L842.91+0L842.91+560L0+560L0+0Z" opacity="1" fill="none"/>
</g>
</svg>
