<?xml version="1.0" encoding="UTF-8"?>
<svg width="0" height="300" viewBox="0 0 1025 300" version="1.1" xmlns="http://www.w3.org/2000/svg" xmlns:xlink="http://www.w3.org/1999/xlink">
    <!-- Generator: Sketch 49.3 (51167) - http://www.bohemiancoding.com/sketch -->
    <title>Slice</title>
    <desc>Created with Sketch.</desc>
    <defs></defs>
    <g id="Page-1" stroke="black" stroke-width="1" fill="black" >
        <g id="dagen-logo" transform="translate(417.000000, 0.000000)" fill="black" fill-rule="nonzero">
            <g id="alfakrøll" transform="translate(225.000000, 0.000000)">
                <g transform="translate(48.603831, 0.000000)" id="Shape">
                    <path d="M212.502323,106.482866 C207.16387,96.6352025 199.992813,88.3087227 191.068831,81.4233645 C182.144848,74.5380062 171.786655,69.3339564 160.073928,65.571028 C148.361202,61.888162 136.011048,60.046729 123.023467,60.046729 C109.557816,60.046729 96.8889482,62.6087227 85.0965434,67.652648 C73.3041385,72.7766355 62.945945,79.7420561 54.1016413,88.628972 C45.2573377,97.5158879 38.3253159,107.923988 33.2258975,119.773209 C28.1264792,131.62243 25.6564485,144.352336 25.6564485,157.882866 C25.6564485,171.413396 28.2061576,184.143302 33.2258975,195.992523 C38.3253159,207.841745 45.2573377,218.169782 54.1016413,226.976636 C62.945945,235.783489 73.3041385,242.668847 85.0965434,247.552648 C96.3311994,252.196262 108.362639,254.678193 121.031507,254.91838 C116.728873,249.874455 114.975948,242.74891 117.127265,235.943614 C117.685014,234.102181 118.561476,232.420872 119.597295,230.819626 C112.824631,230.019003 106.450358,228.577882 100.474477,226.496262 C90.9927458,223.133645 82.8655478,218.329907 76.0132045,212.004984 C69.1608611,205.680062 63.9020859,197.994081 60.1572006,188.94704 C56.4123153,179.9 54.5000334,169.652025 54.5000334,158.203115 C54.5000334,147.314642 56.17328,137.386916 59.5994517,128.419938 C63.0256234,119.45296 67.8860065,111.686916 74.180601,105.041745 C80.4751955,98.4766355 88.124323,93.352648 97.0483051,89.7498442 C105.972287,86.1470405 115.932089,84.3056075 127.007388,84.3056075 C136.967189,84.3056075 146.209885,85.5866044 154.735475,88.2286604 C163.261065,90.8707165 170.591479,94.7137072 176.806395,99.6775701 C183.021311,104.721495 187.802016,110.886293 191.228187,118.171963 C194.654359,125.457632 196.327606,133.864174 196.327606,143.391589 C196.327606,150.757321 195.530822,157.082243 193.937253,162.366355 C192.343685,167.650467 190.351725,171.893769 188.041051,175.176324 C185.650699,178.458879 183.180668,180.860748 180.55128,182.461994 C177.921893,184.06324 175.451862,184.863863 173.220866,184.863863 C170.272765,184.863863 168.758875,182.942368 168.758875,179.099377 C168.758875,177.898442 168.997911,176.057009 169.396303,173.575078 C169.794695,171.093146 170.193087,168.931464 170.591479,166.929907 L181.109029,111.286604 L156.96647,111.286604 L154.894832,121.054206 C150.512519,115.449844 145.572458,111.366667 140.074647,108.804673 C134.576837,106.242679 128.441599,104.961682 121.828291,104.961682 C113.780771,104.961682 106.450358,106.642991 99.9167279,110.005607 C93.3034197,113.368224 87.7259309,117.851713 83.1045831,123.456075 C78.4832352,129.060436 74.8977067,135.545483 72.3479975,142.75109 C69.7982884,149.956698 68.5234338,157.482555 68.5234338,165.168536 C68.5234338,172.053894 69.6389316,178.218692 71.7902487,183.742991 C73.9415658,189.26729 76.9693454,194.071028 80.7142307,198.154206 C84.4591161,202.237383 88.8414287,205.359813 93.8611686,207.521495 C98.8809085,209.683178 104.060005,210.80405 109.478137,210.80405 C115.454018,210.80405 120.792472,209.76324 125.652855,207.601558 C130.513238,205.519938 134.337802,202.637695 137.365581,199.195016 L138.401401,199.195016 C138.879471,202.877882 140.552718,205.760125 143.42114,207.761682 C146.209885,209.76324 149.636057,210.80405 153.619977,210.80405 C160.631677,210.80405 168.04177,209.202804 175.929932,205.920249 C183.818095,202.637695 190.989152,197.994081 197.60246,191.909346 C204.13609,185.824611 209.6339,178.378816 214.016213,169.4919 C218.398526,160.604984 220.549843,150.677259 220.549843,139.548598 C220.470164,127.299065 217.840777,116.33053 212.502323,106.482866 Z M144.217925,164.928349 C142.94307,168.210903 141.030788,171.013084 138.720114,173.495016 C136.329762,175.976947 133.541017,177.898442 130.274203,179.419626 C127.007388,180.94081 123.421859,181.661371 119.35826,181.661371 C113.541736,181.661371 109.000067,179.579751 105.573895,175.496573 C102.147723,171.333333 100.474477,166.449533 100.474477,160.845171 C100.474477,157.642679 101.111904,154.440187 102.466437,151.237695 C103.741292,148.035202 105.494217,145.072897 107.725212,142.510903 C109.956208,139.94891 112.505917,137.86729 115.613375,136.346106 C118.641155,134.74486 121.987648,133.944237 125.493498,133.944237 C131.788092,133.944237 136.807832,135.865732 140.632396,139.788785 C144.377281,143.631776 146.289563,148.675701 146.289563,154.840498 C146.209885,158.283178 145.492779,161.645794 144.217925,164.928349 Z"></path>
                    <path d="M149.715735,246.271651 C147.325383,253.797508 139.43722,257.960748 131.947449,255.558879 C124.457679,253.237072 120.314401,245.230841 122.704754,237.704984 C125.015427,230.179128 132.983269,226.015888 140.473039,228.417757 C147.883132,230.739564 152.026409,238.745794 149.715735,246.271651 Z"></path>
                    <path d="M177.762536,241.147664 C175.929932,246.992212 169.715016,250.274766 163.898492,248.433333 C158.081968,246.5919 154.815153,240.34704 156.647757,234.502492 C158.48036,228.657944 164.695276,225.375389 170.5118,227.216822 C176.328324,228.978193 179.595139,235.223053 177.762536,241.147664 Z"></path>
                    <path d="M201.427024,227.857321 C200.072491,232.260748 195.371465,234.662617 190.989152,233.301558 C186.606839,231.940498 184.216487,227.216822 185.57102,222.813396 C186.925553,218.409969 191.626579,215.928037 196.008892,217.369159 C200.391205,218.730218 202.861235,223.453894 201.427024,227.857321 Z"></path>
                    <path d="M217.601742,210.723988 C216.565922,214.006542 213.060072,215.847975 209.793257,214.807165 C206.526442,213.766355 204.693839,210.243614 205.729658,206.961059 C206.765478,203.678505 210.271328,201.837072 213.538143,202.877882 C216.804957,203.918692 218.637561,207.441433 217.601742,210.723988 Z"></path>
                    <path d="M200.948954,58.205296 C201.506702,62.2884735 205.012553,65.1707165 208.916795,64.4501558 C212.741358,63.8096573 215.450424,59.9666667 214.892676,55.8034268 C214.334927,51.7202492 210.829077,48.9180685 206.924834,49.558567 C203.100271,50.1990654 200.391205,54.1221184 200.948954,58.205296 Z"></path>
                    <path d="M218.318847,77.9806854 C218.796918,81.4233645 221.745019,83.7451713 224.932155,83.1847352 C228.119292,82.6242991 230.350287,79.4218069 229.951895,75.9791277 C229.473825,72.5364486 226.525724,70.2146417 223.338587,70.7750779 C220.151451,71.4155763 217.840777,74.6180685 218.318847,77.9806854 Z"></path>
                    <path d="M179.117069,41.2320872 C179.754496,46.3560748 184.216487,49.8788162 188.997192,49.0781931 C193.857575,48.2775701 197.204068,43.4738318 196.486962,38.2697819 C195.849535,33.1457944 191.387544,29.623053 186.606839,30.423676 C181.826135,31.2242991 178.479642,36.1080997 179.117069,41.2320872 Z"></path>
                    <path d="M149.078308,26.6607477 C149.95477,33.1457944 155.532259,37.6292835 161.587818,36.5884735 C167.643378,35.5476636 171.946012,29.4629283 171.069549,22.9778816 C170.193087,16.4928349 164.615598,12.0093458 158.48036,13.0501558 C152.504479,14.0109034 148.281524,20.0956386 149.078308,26.6607477 Z"></path>
                    <path d="M111.071705,17.1333333 C112.027846,24.65919 118.561476,29.8632399 125.573176,28.6623053 C132.664555,27.4613707 137.604616,20.4158879 136.568797,12.8900312 C135.612656,5.36417445 129.079026,0.160124611 122.067326,1.36105919 C115.055626,2.56199377 110.115565,9.60747664 111.071705,17.1333333 Z"></path>
                    <path d="M63.1053018,22.1772586 C64.4598348,32.4252336 73.3041385,39.4707165 82.9452263,37.8694704 C92.586314,36.2682243 99.2793006,26.5806854 97.9247676,16.3327103 C96.5702346,6.0046729 87.7259309,-0.960747664 78.0848432,0.640498442 C68.5234338,2.32180685 61.8304472,11.9292835 63.1053018,22.1772586 Z"></path>
                    <path d="M0.55774888,50.8395639 C2.62938758,63.5694704 14.0234004,71.8959502 25.8954837,69.494081 C37.767567,67.0922118 45.7354081,54.7626168 43.584091,42.0327103 C41.4327739,29.3028037 30.1184395,20.976324 18.2463562,23.3781931 C6.37427291,25.7800623 -1.59356823,38.1096573 0.55774888,50.8395639 Z"></path>
                </g>
                <path d="M1.03581935,101.278816 C3.26681487,114.809346 15.3779334,123.696262 28.0468008,121.134268 C40.7156682,118.572274 49.1615798,105.442056 46.9305843,91.9115265 C44.6995888,78.3809969 32.5884703,69.494081 19.9196028,72.0560748 C7.25073544,74.6180685 -1.19517617,87.7482866 1.03581935,101.278816 Z" id="Shape"></path>
            </g>
            <g id="agen ifi group" transform="translate(0.000000, 102.000000)">
                <path d="M266.48,20.1193548 C263.28,22.1951613 259.76,23.7919355 255.92,24.5104839 C250.16,25.7080645 244.56,25.0693548 239.44,23.0733871 C233.92,26.5064516 231.12,32.4145161 231.12,41.3564516 L231.12,76.0064516 C231.12,77.1241935 232,78.1620968 233.2,78.1620968 L248.16,78.1620968 C249.36,78.1620968 250.24,77.0443548 250.24,76.0064516 L250.24,41.3564516 C250.24,37.6040323 250.56,34.8895161 255.2,34.8895161 L258.96,34.8895161 C263.68,34.8895161 263.92,37.6040323 263.92,41.3564516 L263.92,76.0064516 C263.92,77.1241935 264.8,78.1620968 266,78.1620968 L280.96,78.1620968 C282.16,78.1620968 283.04,77.0443548 283.04,76.0064516 L283.04,41.3564516 C283.12,28.6620968 277.36,22.0354839 266.48,20.1193548 Z" id="n"></path>
                <path d="M106.16,76.166129 C99.76,77.7629032 92.72,79.0403226 84.4,79.0403226 C67.36,79.0403226 58.96,73.2919355 58.96,60.8370968 L58.96,60.0387097 C58.96,48.0629032 68.56,43.7516129 84.4,43.7516129 L88.32,43.7516129 L88.32,40.9572581 C88.32,36.0870968 85.52,35.208871 82.16,35.208871 C75.68,35.208871 68,35.6080645 65.12,35.9274194 C63.92,36.0072581 63.04,35.208871 63.04,33.9314516 L63.04,24.2709677 C63.04,23.1532258 63.76,22.1951613 64.96,21.8758065 C68.24,20.9177419 75.84,19.4008065 82.24,19.4008065 C96.72,19.4008065 107.44,24.191129 107.44,40.9572581 L107.44,73.8508065 C107.36,75.0483871 107.2,75.8467742 106.16,76.166129 Z M88.8,54.1306452 L84.4,54.1306452 C79.52,54.1306452 77.2,55.8072581 77.2,59.958871 L77.2,60.8370968 C77.2,64.908871 79.92,65.7072581 84.4,65.7072581 C86,65.7072581 87.68,65.6274194 88.8,65.3879032 L88.8,54.1306452 Z" id="a"></path>
                <path d="M140.08,98.441129 C131.28,98.441129 124.16,96.6048387 120.64,95.4870968 C119.28,95.0080645 118.64,94.2895161 118.64,92.6927419 L118.64,84.5491935 C118.64,83.4314516 119.36,82.6330645 120.4,82.6330645 C120.48,82.6330645 120.48,82.6330645 120.64,82.6330645 C125.12,83.0322581 135.12,83.8306452 140.08,83.8306452 C145.76,83.8306452 147.36,82.5532258 147.36,77.9225806 L147.36,76.2459677 C145.76,76.5653226 142.4,76.9645161 140.16,76.9645161 C122.48,76.9645161 113.92,66.825 113.92,51.0169355 L113.92,45.3483871 C113.92,28.6620968 123.76,19.4008065 140.16,19.4008065 C149.12,19.4008065 157.6,20.358871 162.48,21.716129 C165.44,22.5145161 166,22.9935484 166,24.6701613 L166,78.0024194 C166,92.6129032 157.76,98.441129 140.08,98.441129 Z M147.36,35.6879032 C145.44,35.4483871 143.2,35.208871 140.16,35.208871 C134.56,35.208871 132.96,39.3604839 132.96,45.3483871 L132.96,51.0169355 C132.96,56.7653226 134.56,61.2362903 140.16,61.2362903 C142.56,61.2362903 145.36,60.9169355 147.36,60.7572581 L147.36,35.6879032 Z" id="g"></path>
                <path d="M222.48,54.6096774 L191.44,54.6096774 L191.44,54.7693548 C191.44,60.0387097 193.6,63.3120968 200.88,63.3120968 C206.16,63.3120968 216,62.9129032 219.84,62.5137097 C219.92,62.5137097 220.16,62.5137097 220.24,62.5137097 C221.36,62.5137097 222,62.9927419 222,64.1903226 L222,73.1322581 C222,74.7290323 221.6,75.4475806 220,75.9266129 C213.6,78.0024194 206.72,79.0403226 198.4,79.0403226 C184.96,79.0403226 172.48,72.0145161 172.48,53.0129032 L172.48,46.466129 C172.48,28.9814516 182.64,19.4008065 199.04,19.4008065 C216.48,19.4008065 224.56,30.4185484 224.56,46.466129 L224.56,52.4540323 C224.64,53.7314516 223.68,54.6096774 222.48,54.6096774 Z M206.24,43.7516129 C206.24,37.7637097 203.84,34.1709677 198.88,34.1709677 C194.08,34.1709677 191.52,37.7637097 191.52,43.7516129 L191.52,44.0709677 L206.24,44.0709677 L206.24,43.7516129 Z" id="3rd e"></path>
                <path d="M532.08,21.0774194 L516.32,21.0774194 C515.2,21.0774194 514,20.1991935 514,19.0814516 L514,9.34112903 C514,8.2233871 515.2,7.34516129 516.32,7.34516129 L532.08,7.34516129 C533.2,7.34516129 534.24,8.2233871 534.24,9.34112903 L534.24,19.0814516 C534.24,20.1991935 533.12,21.0774194 532.08,21.0774194 Z M531.52,84.4693548 L516.64,84.4693548 C515.52,84.4693548 514.48,83.3516129 514.48,82.3137097 L514.48,28.6620968 C514.48,27.5443548 515.6,26.5862903 516.64,26.5862903 L531.52,26.5862903 C532.64,26.5862903 533.68,27.5443548 533.68,28.6620968 L533.68,82.233871 C533.76,83.3516129 532.64,84.4693548 531.52,84.4693548 Z" id="second i"></path>
                <path d="M577.44,40.6379032 L564.4,40.6379032 L564.4,82.233871 C564.4,83.3516129 563.44,84.3895161 562.32,84.3895161 L547.2,84.3895161 C546.08,84.3895161 545.12,83.2717742 545.12,82.233871 L545.12,23.7919355 C545.12,9.1016129 554.96,5.66854839 566.08,5.66854839 C570.08,5.66854839 575.28,6.14758065 577.76,6.6266129 C579.12,6.94596774 579.52,7.34516129 579.52,8.2233871 L579.52,17.883871 C579.52,19.0016129 578.8,19.6403226 577.76,19.6403226 L568.96,19.6403226 C564.88,19.6403226 564.4,20.9177419 564.4,23.7120968 L564.4,26.4266129 L577.44,26.4266129 C578.56,26.4266129 579.52,27.3048387 579.52,28.4225806 L579.52,38.4822581 C579.52,39.6798387 578.48,40.6379032 577.44,40.6379032 Z" id="f"></path>
                <path d="M605.52,21.0774194 L589.76,21.0774194 C588.64,21.0774194 587.44,20.1991935 587.44,19.0814516 L587.44,9.34112903 C587.44,8.2233871 588.64,7.34516129 589.76,7.34516129 L605.52,7.34516129 C606.64,7.34516129 607.68,8.2233871 607.68,9.34112903 L607.68,19.0814516 C607.76,20.1991935 606.64,21.0774194 605.52,21.0774194 Z M605.04,84.4693548 L590.16,84.4693548 C589.04,84.4693548 588,83.3516129 588,82.3137097 L588,28.6620968 C588,27.5443548 589.12,26.5862903 590.16,26.5862903 L605.04,26.5862903 C606.16,26.5862903 607.2,27.5443548 607.2,28.6620968 L607.2,82.233871 C607.2,83.3516129 606.16,84.4693548 605.04,84.4693548 Z" id="last i"></path>
            </g>
        </g>
        <path d="M51,153.122 C51,154.652 50.184,155.57 48.858,155.57 L16.32,155.57 L16.32,155.774 C16.32,161.588 18.768,166.892 26.826,166.892 C33.252,166.892 42.33,166.382 46.41,165.974 L46.716,165.974 C47.838,165.974 48.654,166.484 48.654,167.606 L48.654,175.358 C48.654,176.99 48.246,177.704 46.512,178.112 C39.984,179.744 34.476,180.56 25.602,180.56 C13.26,180.56 0,174.032 0,154.346 L0,147.206 C0,130.784 9.588,120.38 25.806,120.38 C42.534,120.38 51,131.804 51,147.206 L51,153.122 Z M34.884,145.37 L34.884,144.962 C34.884,137.414 31.416,133.64 25.704,133.64 C20.094,133.64 16.32,137.516 16.32,144.962 L16.32,145.37 L34.884,145.37 Z M94.044,131.498 C94.044,132.62 93.126,133.538 92.004,133.538 L78.03,133.538 L78.03,163.832 C78.03,167.402 79.662,168.014 84.048,168.014 L91.698,168.014 C93.024,168.014 93.84,168.626 93.84,169.748 L93.84,177.602 C93.84,178.724 93.126,179.438 91.8,179.642 C88.842,180.152 83.946,180.56 79.56,180.56 C68.136,180.56 61.404,176.99 61.404,163.73 L61.404,112.526 C61.404,111.404 62.322,110.69 63.444,110.486 L75.888,108.344 L76.194,108.344 C77.112,108.344 78.03,109.364 78.03,110.384 L78.03,121.196 L92.004,121.196 C93.126,121.196 94.044,122.114 94.044,123.236 L94.044,131.498 Z M134.946,131.498 C134.946,132.62 134.028,133.538 132.906,133.538 L118.932,133.538 L118.932,163.832 C118.932,167.402 120.564,168.014 124.95,168.014 L132.6,168.014 C133.926,168.014 134.742,168.626 134.742,169.748 L134.742,177.602 C134.742,178.724 134.028,179.438 132.702,179.642 C129.744,180.152 124.848,180.56 120.462,180.56 C109.038,180.56 102.306,176.99 102.306,163.73 L102.306,112.526 C102.306,111.404 103.224,110.69 104.346,110.486 L116.79,108.344 L117.096,108.344 C118.014,108.344 118.932,109.364 118.932,110.384 L118.932,121.196 L132.906,121.196 C134.028,121.196 134.946,122.114 134.946,123.236 L134.946,131.498 Z M192.984,153.122 C192.984,154.652 192.168,155.57 190.842,155.57 L158.304,155.57 L158.304,155.774 C158.304,161.588 160.752,166.892 168.81,166.892 C175.236,166.892 184.314,166.382 188.394,165.974 L188.7,165.974 C189.822,165.974 190.638,166.484 190.638,167.606 L190.638,175.358 C190.638,176.99 190.23,177.704 188.496,178.112 C181.968,179.744 176.46,180.56 167.586,180.56 C155.244,180.56 141.984,174.032 141.984,154.346 L141.984,147.206 C141.984,130.784 151.572,120.38 167.79,120.38 C184.518,120.38 192.984,131.804 192.984,147.206 L192.984,153.122 Z M176.868,145.37 L176.868,144.962 C176.868,137.414 173.4,133.64 167.688,133.64 C162.078,133.64 158.304,137.516 158.304,144.962 L158.304,145.37 L176.868,145.37 Z M232.152,132.212 C232.152,133.334 231.336,134.15 229.398,134.15 C226.44,134.15 222.36,134.354 220.218,134.762 L220.218,177.5 C220.218,178.622 219.3,179.642 218.178,179.642 L205.836,179.642 C204.714,179.642 203.694,178.622 203.694,177.5 L203.694,126.602 C203.694,125.174 204.51,124.154 206.856,123.338 C213.384,121.196 219.708,120.38 229.398,120.38 C230.622,120.38 232.152,120.89 232.152,122.318 L232.152,132.212 Z M317.016,177.398 C317.016,178.52 316.098,179.642 314.976,179.642 L302.532,179.642 C301.41,179.642 300.492,178.52 300.492,177.398 L300.492,141.392 C300.492,135.578 298.758,133.946 294.474,133.946 L292.536,133.946 C287.436,133.946 286.824,136.904 286.824,141.392 L286.824,177.398 C286.824,178.52 286.008,179.642 284.886,179.642 L272.34,179.642 C271.218,179.642 270.3,178.52 270.3,177.398 L270.3,141.392 C270.3,136.904 269.688,133.946 264.588,133.946 L262.548,133.946 C258.264,133.946 256.632,135.578 256.632,141.392 L256.632,177.398 C256.632,178.52 255.714,179.642 254.592,179.642 L242.148,179.642 C241.026,179.642 240.108,178.52 240.108,177.398 L240.108,141.392 C240.108,127.01 248.268,120.38 262.548,120.38 L264.588,120.38 C270.606,120.38 275.196,122.114 278.562,124.766 C281.928,122.114 286.518,120.38 292.536,120.38 L294.474,120.38 C308.754,120.38 317.016,127.01 317.016,141.392 L317.016,177.398 Z M346.086,112.526 C346.086,113.648 345.168,114.566 344.046,114.566 L330.786,114.566 C329.664,114.566 328.746,113.648 328.746,112.526 L328.746,103.04 C328.746,101.918 329.664,101 330.786,101 L344.046,101 C345.168,101 346.086,101.918 346.086,103.04 L346.086,112.526 Z M345.678,177.602 C345.678,178.724 344.76,179.642 343.638,179.642 L331.194,179.642 C330.072,179.642 329.154,178.724 329.154,177.602 L329.154,123.236 C329.154,122.114 330.072,121.196 331.194,121.196 L343.638,121.196 C344.76,121.196 345.678,122.114 345.678,123.236 L345.678,177.602 Z M406.878,174.95 C406.878,176.582 406.47,177.296 403.716,177.908 C397.902,179.336 389.946,180.56 382.092,180.56 C365.568,180.56 356.49,170.972 356.49,154.448 L356.49,146.492 C356.49,130.478 364.854,120.38 382.092,120.38 C384.132,120.38 387.498,120.686 390.456,121.094 L390.456,103.448 C390.456,102.326 391.374,101.408 392.496,101.408 L404.736,101.408 C405.858,101.408 406.878,102.326 406.878,103.448 L406.878,174.95 Z M390.456,166.382 L390.456,134.558 C388.008,134.252 384.54,134.048 382.092,134.048 C374.85,134.048 372.912,139.352 372.912,146.492 L372.912,154.448 C372.912,161.69 374.85,166.994 382.092,166.994 C385.458,166.994 388.518,166.688 390.456,166.382 Z M467.67,174.95 C467.67,176.582 467.262,177.296 464.508,177.908 C458.694,179.336 450.738,180.56 442.884,180.56 C426.36,180.56 417.282,170.972 417.282,154.448 L417.282,146.492 C417.282,130.478 425.646,120.38 442.884,120.38 C444.924,120.38 448.29,120.686 451.248,121.094 L451.248,103.448 C451.248,102.326 452.166,101.408 453.288,101.408 L465.528,101.408 C466.65,101.408 467.67,102.326 467.67,103.448 L467.67,174.95 Z M451.248,166.382 L451.248,134.558 C448.8,134.252 445.332,134.048 442.884,134.048 C435.642,134.048 433.704,139.352 433.704,146.492 L433.704,154.448 C433.704,161.69 435.642,166.994 442.884,166.994 C446.25,166.994 449.31,166.688 451.248,166.382 Z" id="ettermidd" stroke="black" fill="black"></path>
    </g>
</svg>