<?xml version="1.0" encoding="UTF-8" standalone="no"?> <!-- Created with Vectornator for iOS (http://vectornator.io/) --><!DOCTYPE svg PUBLIC "-//W3C//DTD SVG 1.1//EN" "http://www.w3.org/Graphics/SVG/1.1/DTD/svg11.dtd">
<svg style="fill-rule:evenodd;clip-rule:evenodd;stroke-linecap:round;stroke-linejoin:round;" xmlns:vectornator="http://vectornator.io" xmlns:xlink="http://www.w3.org/1999/xlink" xmlns="http://www.w3.org/2000/svg" xml:space="preserve" version="1.1" viewBox="0 0 960 560">
<metadata>
<vectornator:setting key="DynamicGuides" value="1"/>
<vectornator:setting key="Units" value="Points"/>
<vectornator:setting key="RulersVisible" value="1"/>
<vectornator:setting key="SnapToGuides" value="1"/>
<vectornator:setting key="GridSpacing" value="36"/>
</metadata>
<defs/>
<g id="Layer 1" vectornator:layerName="Layer 1">
<path d="M549.815+320.158C548.169+324.237+545.834+327.81+542.859+330.906C539.896+333.989+536.358+336.468+532.281+338.339C528.205+340.219+523.623+341.15+518.553+341.15C511.275+341.15+505.495+338.562+501.194+333.385C496.893+328.202+494.744+322.081+494.744+315.025C494.744+311.061+495.568+307.039+497.223+302.943C498.876+298.885+501.075+295.237+503.836+292.049C506.586+288.846+509.893+286.256+513.761+284.268C517.614+282.279+521.752+281.293+526.161+281.293C534.103+281.293+540.434+283.72+545.184+288.577C549.918+293.418+552.294+299.696+552.294+307.423C552.294+311.832+551.459+316.073+549.815+320.158M635.788+246.895C629.078+234.554+620.091+224.075+608.848+215.472C597.599+206.883+584.584+200.273+569.819+195.636C555.047+191.01+539.496+188.688+523.182+188.688C506.204+188.688+490.274+191.885+475.389+198.276C460.511+204.679+447.499+213.44+436.374+224.568C425.237+235.709+416.466+248.715+410.071+263.595C403.676+278.487+400.488+294.416+400.488+311.391C400.488+328.363+403.676+344.293+410.071+359.174C416.466+374.06+425.237+387.013+436.374+398.037C447.499+409.06+460.511+417.661+475.389+423.833C489.538+429.699+504.647+432.745+520.688+433.037C515.266+426.687+513.102+417.792+515.792+409.225C516.52+406.893+517.577+404.766+518.874+402.825C510.384+401.855+502.336+400.049+494.744+397.369C482.842+393.187+472.58+387.121+463.979+379.186C455.385+371.246+448.717+361.6+443.967+350.253C439.244+338.891+436.864+326.046+436.864+311.715C436.864+298.051+439.015+285.594+443.315+274.353C447.616+263.097+453.737+253.34+461.667+245.075C469.611+236.805+479.201+230.421+490.436+225.891C501.685+221.373+514.244+219.113+528.149+219.113C540.715+219.113+552.335+220.762+563.038+224.075C573.727+227.378+582.995+232.179+590.819+238.466C598.649+244.749+604.702+252.466+609.009+261.614C613.302+270.767+615.454+281.293+615.454+293.197C615.454+302.45+614.466+310.389+612.486+317.01C610.493+323.622+608.014+328.972+605.037+333.049C602.063+337.137+598.924+340.158+595.624+342.141C592.303+344.128+589.216+345.126+586.357+345.126C582.602+345.126+580.732+342.699+580.732+337.84C580.732+336.3+581.003+333.989+581.559+330.906C582.112+327.81+582.602+325.058+583.05+322.634L596.283+252.856L565.847+252.856L563.199+265.091C557.695+258.033+551.459+252.913+544.526+249.707C537.583+246.514+529.907+244.906+521.537+244.906C511.393+244.906+502.182+247.015+493.917+251.189C485.651+255.387+478.584+261.011+472.749+268.06C466.907+275.121+462.382+283.167+459.195+292.206C455.994+301.248+454.39+310.617+454.39+320.326C454.39+328.917+455.77+336.692+458.53+343.634C461.276+350.573+465.03+356.597+469.772+361.656C474.514+366.741+480.027+370.638+486.31+373.402C492.593+376.164+499.157+377.532+505.985+377.532C513.48+377.532+520.262+376.208+526.326+373.568C532.377+370.921+537.289+367.386+541.038+362.987L542.375+362.987C543.027+367.61+545.12+371.2+548.659+373.724C552.174+376.275+556.482+377.532+561.539+377.532C570.365+377.532+579.744+375.502+589.656+371.414C599.587+367.338+608.68+361.496+616.945+353.885C625.211+346.267+632.104+336.913+637.616+325.774C643.124+314.647+645.874+302.136+645.874+288.24C645.874+273.032+642.52+259.247+635.788+246.895" opacity="1" fill="#2da4ff"/>
<path d="M556.734+422.092C553.777+431.475+543.766+436.709+534.376+433.751C524.974+430.809+519.755+420.795+522.713+411.404C525.647+401.997+535.663+396.771+545.064+399.725C554.458+402.684+559.689+412.686+556.734+422.092" opacity="1" fill="#2da4ff"/>
<path d="M592.023+415.648C589.711+423.006+581.873+427.1+574.534+424.79C567.172+422.476+563.081+414.65+565.397+407.294C567.704+399.936+575.534+395.842+582.897+398.162C590.252+400.468+594.336+408.3+592.023+415.648" opacity="1" fill="#2da4ff"/>
<path d="M621.904+399.016C620.167+404.53+614.292+407.589+608.779+405.86C603.258+404.131+600.197+398.256+601.926+392.74C603.657+387.224+609.533+384.149+615.045+385.886C620.575+387.622+623.633+393.494+621.904+399.016" opacity="1" fill="#2da4ff"/>
<path d="M642.246+377.558C640.95+381.689+636.552+383.991+632.396+382.693C628.264+381.386+625.967+376.983+627.264+372.85C628.558+368.71+632.972+366.41+637.105+367.717C641.245+369.004+643.543+373.411+642.246+377.558" opacity="1" fill="#2da4ff"/>
<path d="M621.21+186.4C621.883+191.562+626.346+195.079+631.207+194.266C636.048+193.447+639.438+188.617+638.767+183.466C638.101+178.322+633.628+174.786+628.771+175.599C623.937+176.411+620.545+181.249+621.21+186.4" opacity="1" fill="#2da4ff"/>
<path d="M643.129+211.234C643.683+215.525+647.415+218.451+651.457+217.785C655.485+217.112+658.308+213.095+657.754+208.787C657.193+204.489+653.469+201.544+649.434+202.23C645.391+202.903+642.569+206.939+643.129+211.234" opacity="1" fill="#2da4ff"/>
<path d="M593.788+165.107C594.62+171.547+600.212+175.95+606.271+174.944C612.336+173.921+616.553+167.888+615.726+161.436C614.894+154.998+609.297+150.592+603.245+151.608C597.191+152.614+592.969+158.663+593.788+165.107" opacity="1" fill="#2da4ff"/>
<path d="M555.955+146.817C557.014+154.975+564.08+160.542+571.765+159.271C579.43+157.99+584.796+150.334+583.736+142.18C582.672+134.015+575.59+128.433+567.927+129.719C560.249+130.994+554.885+138.656+555.955+146.817" opacity="1" fill="#2da4ff"/>
<path d="M508.101+134.941C509.328+144.39+517.522+150.856+526.388+149.351C535.28+147.888+541.494+139.007+540.266+129.562C539.034+120.109+530.844+113.65+521.97+115.142C513.081+116.609+506.868+125.492+508.101+134.941" opacity="1" fill="#2da4ff"/>
<path d="M447.657+141.276C449.345+154.169+460.517+162.987+472.635+160.957C484.733+158.935+493.201+146.845+491.54+133.952C489.873+121.061+478.7+112.256+466.577+114.277C454.473+116.312+445.998+128.398+447.657+141.276" opacity="1" fill="#2da4ff"/>
<path d="M368.827+177.162C371.489+193.111+385.786+203.58+400.775+200.516C415.738+197.458+425.733+182.037+423.099+166.071C420.431+150.111+406.134+139.656+391.137+142.698C376.161+145.771+366.18+161.198+368.827+177.162" opacity="1" fill="#2da4ff"/>
<path d="M308.252+240.364C311.075+257.346+326.295+268.49+342.231+265.223C358.159+261.966+368.792+245.566+365.97+228.579C363.154+211.596+347.932+200.476+331.991+203.726C316.055+206.99+305.428+223.388+308.252+240.364" opacity="1" fill="#2da4ff"/>
<path d="M357.207+267.128C353.223+269.748+348.766+271.692+343.913+272.687C336.718+274.161+329.651+273.39+323.277+270.884C316.392+275.18+312.791+282.64+312.791+293.868L312.791+337.388C312.791+338.765+313.932+340.138+315.425+340.138L334.169+340.138C335.682+340.138+336.804+338.765+336.804+337.388L336.804+293.868C336.804+289.117+337.188+285.74+343.065+285.74L347.814+285.74C353.692+285.74+354.07+289.117+354.07+293.868L354.07+337.388C354.07+338.765+355.19+340.138+356.696+340.138L375.454+340.138C376.954+340.138+378.081+338.765+378.081+337.388L378.081+293.868C378.081+277.944+370.866+269.56+357.207+267.128" opacity="1" fill="#000000"/>
<path d="M64.8555+285.731C62.3535+285.481+59.3495+285.232+56.3445+285.232C49.3465+285.232+47.3505+290.602+47.3505+297.981L47.3505+307.739C47.3505+315.244+49.3465+320.612+56.3445+320.612C59.9795+320.612+62.4725+320.371+64.8555+319.993L64.8555+285.731ZM84.3555+337.252C77.8625+338.625+67.6015+340.383+56.3445+340.383C35.8335+340.383+23.4575+328.872+23.4575+307.739L23.4575+297.981C23.4575+278.098+34.2165+265.353+56.3445+265.353C58.3545+265.353+62.2205+265.84+64.8555+266.222M64.8555+266.222L64.8555+245.085C64.8555+243.716+65.9825+242.574+67.3625+242.574L85.9805+242.574C87.3675+242.574+88.7405+243.716+88.7405+245.085L88.7405+333.252C88.7405+335.376+88.1175+336.377+84.3555+337.252" opacity="1" fill="#000000"/>
<path d="M134.355+309.881L128.835+309.881C122.713+309.881+119.842+312.001+119.842+317.254L119.842+318.375C119.842+323.506+123.211+324.505+128.835+324.505C130.846+324.505+132.968+324.374+134.355+324.133L134.355+309.881ZM156.111+337.638C148.098+339.634+139.229+341.26+128.835+341.26C107.457+341.26+96.9645+334.009+96.9645+318.375L96.9645+317.374C96.9645+302.372+108.955+296.868+128.835+296.868L133.718+296.868L133.718+293.368C133.718+290.323+132.851+288.512+131.456+287.46M131.456+287.46C130.047+286.397+128.099+286.11+125.963+286.11C117.831+286.11+108.207+286.616+104.579+286.998C103.08+287.121+101.951+286.11+101.951+284.493L101.951+272.37C101.951+270.981+102.828+269.744+104.326+269.364C108.451+268.111+117.957+266.232+125.963+266.232C144.106+266.232+157.596+272.235+157.596+293.368L157.596+334.755C157.596+336.254+157.484+337.263+156.111+337.638" opacity="1" fill="#000000"/>
<path d="M207.84+286.738C205.458+286.489+202.587+286.111+198.832+286.111C191.827+286.111+189.824+291.371+189.824+298.87L189.824+305.997C189.824+313.254+191.827+318.879+198.832+318.879C201.83+318.879+205.339+318.501+207.84+318.259L207.84+286.738ZM198.699+365.648C187.695+365.648+178.693+363.397+174.322+361.901C172.571+361.273+171.822+360.396+171.822+358.395L171.822+348.138C171.822+346.765+172.698+345.776+174.07+345.776L174.322+345.776C179.954+346.268+192.458+347.262+198.699+347.262C205.843+347.262+207.84+345.644+207.84+339.883L207.84+337.767C205.843+338.138+201.578+338.645+198.832+338.645C176.69+338.645+165.937+325.877+165.937+305.997L165.937+298.87C165.937+277.867+178.33+266.231+198.832+266.231C210.075+266.231+220.722+267.479+226.844+269.107C230.591+270.106+231.221+270.725+231.221+272.855L231.221+327.464M231.221+327.464L231.221+339.883C231.221+358.274+220.833+365.648+198.699+365.648" opacity="1" fill="#000000"/>
<path d="M281.704+296.868C281.704+289.364+278.699+284.863+272.436+284.863C266.441+284.863+263.184+289.364+263.184+296.868L263.184+297.249L281.704+297.249L281.704+296.868ZM302.088+310.502L263.184+310.502L263.184+310.748C263.184+317.374+265.951+321.507+275.064+321.507C281.704+321.507+294.088+321.009+298.837+320.508L299.327+320.508C300.708+320.508+301.59+321.135+301.59+322.634L301.59+333.893C301.59+335.883+301.085+336.762+299.096+337.389C291.083+340.015+282.454+341.26+271.954+341.26C255.072+341.26+239.43+332.388+239.43+308.502L239.43+300.239C239.43+278.227+252.179+266.232+272.696+266.232C294.578+266.232+304.714+280.112+304.714+300.239L304.714+307.753C304.714+309.381+303.586+310.502+302.088+310.502" opacity="1" fill="#000000"/>
<path d="M689.744+348.033L671.112+348.033C669.74+348.033+668.359+346.649+668.359+345.283L668.359+277.871C668.359+276.49+669.74+275.247+671.112+275.247L689.744+275.247C691.118+275.247+692.49+276.49+692.49+277.871L692.49+345.283C692.49+346.649+691.118+348.033+689.744+348.033M690.36+268.359L670.6+268.359C669.233+268.359+667.735+267.241+667.735+265.867L667.735+253.61C667.735+252.227+669.233+251.113+670.6+251.113L690.36+251.113C691.74+251.113+693.121+252.227+693.121+253.61L693.121+265.867C693.121+267.241+691.74+268.359+690.36+268.359" opacity="1" fill="#000000"/>
<path d="M747.267+293.005L730.89+293.005L730.89+345.282C730.89+346.649+729.629+348.033+728.248+348.033L709.381+348.033C707.998+348.033+706.752+346.649+706.752+345.282L706.752+271.87C706.752+253.366+719.136+249.111+733.012+249.111C738.014+249.111+744.513+249.734+747.638+250.354C749.389+250.734+749.886+251.236+749.886+252.366L749.886+264.499C749.886+265.868+749.019+266.737+747.638+266.737L736.64+266.737C731.5+266.737+730.89+268.359+730.89+271.87L730.89+275.247L747.267+275.247C748.647+275.247+749.886+276.376+749.886+277.745L749.886+290.374C749.886+291.742+748.647+293.005+747.267+293.005" opacity="1" fill="#000000"/>
<path d="M781.912+348.033L763.271+348.033C761.904+348.033+760.534+346.649+760.534+345.283L760.534+277.871C760.534+276.49+761.904+275.247+763.271+275.247L781.912+275.247C783.285+275.247+784.672+276.49+784.672+277.871L784.672+345.283C784.672+346.649+783.285+348.033+781.912+348.033M782.534+268.359L762.774+268.359C761.393+268.359+759.911+267.241+759.911+265.867L759.911+253.61C759.911+252.227+761.393+251.113+762.774+251.113L782.534+251.113C783.915+251.113+785.295+252.227+785.295+253.61L785.295+265.867C785.295+267.241+783.915+268.359+782.534+268.359" opacity="1" fill="#000000"/>
<path d="M0+0L960+0L960+560L0+560L0+0Z" opacity="1" fill="none"/>
</g>
</svg>
